<svg width="261" height="68" viewBox="0 0 261 68" fill="none" xmlns="http://www.w3.org/2000/svg">
<path d="M91.4528 24.7783C89.7005 24.7783 88.0672 24.4971 86.5529 23.9346C85.0602 23.3505 83.7623 22.5285 82.659 21.4684C81.5557 20.4084 80.6904 19.1645 80.063 17.7368C79.4573 16.309 79.1544 14.7406 79.1544 13.0316C79.1544 11.3226 79.4573 9.75421 80.063 8.32644C80.6904 6.89866 81.5557 5.65477 82.659 4.59476C83.7839 3.53475 85.0927 2.72351 86.5854 2.16105C88.078 1.57697 89.7113 1.28492 91.4852 1.28492C93.4538 1.28492 95.2277 1.63105 96.8069 2.3233C98.4077 2.99392 99.749 3.98904 100.831 5.30865L97.4559 8.42379C96.6771 7.53684 95.8118 6.87703 94.8599 6.44437C93.9081 5.99008 92.8697 5.76294 91.7448 5.76294C90.6848 5.76294 89.7113 5.936 88.8244 6.28213C87.9374 6.62825 87.1694 7.12581 86.5205 7.7748C85.8715 8.42379 85.3631 9.19176 84.9953 10.0787C84.6492 10.9657 84.4761 11.95 84.4761 13.0316C84.4761 14.1132 84.6492 15.0975 84.9953 15.9845C85.3631 16.8714 85.8715 17.6394 86.5205 18.2884C87.1694 18.9374 87.9374 19.4349 88.8244 19.7811C89.7113 20.1272 90.6848 20.3003 91.7448 20.3003C92.8697 20.3003 93.9081 20.0839 94.8599 19.6513C95.8118 19.197 96.6771 18.5155 97.4559 17.607L100.831 20.7221C99.749 22.0417 98.4077 23.0476 96.8069 23.7399C95.2277 24.4322 93.443 24.7783 91.4528 24.7783ZM114.32 24.3889V20.9817L113.995 20.2354V14.1349C113.995 13.0532 113.66 12.2095 112.99 11.6038C112.341 10.9981 111.335 10.6952 109.972 10.6952C109.042 10.6952 108.122 10.8467 107.214 11.1495C106.327 11.4308 105.569 11.8202 104.942 12.3177L103.125 8.78073C104.077 8.11011 105.223 7.59092 106.565 7.22316C107.906 6.8554 109.269 6.67152 110.653 6.67152C113.314 6.67152 115.38 7.29887 116.851 8.55358C118.322 9.80829 119.058 11.7661 119.058 14.4269V24.3889H114.32ZM108.998 24.6485C107.635 24.6485 106.467 24.4213 105.494 23.967C104.52 23.4911 103.774 22.8529 103.255 22.0525C102.736 21.2521 102.476 20.3543 102.476 19.3592C102.476 18.3208 102.725 17.4123 103.222 16.6335C103.741 15.8547 104.553 15.249 105.656 14.8163C106.759 14.362 108.198 14.1349 109.972 14.1349H114.612V17.0878H110.523C109.334 17.0878 108.512 17.2825 108.057 17.6719C107.625 18.0613 107.408 18.548 107.408 19.1321C107.408 19.7811 107.657 20.3003 108.155 20.6897C108.674 21.0574 109.377 21.2413 110.264 21.2413C111.107 21.2413 111.865 21.0466 112.535 20.6572C113.206 20.2462 113.693 19.6513 113.995 18.8725L114.774 21.2088C114.406 22.3338 113.736 23.1883 112.762 23.7723C111.789 24.3564 110.534 24.6485 108.998 24.6485ZM123.639 24.3889V6.93111H128.474V11.8634L127.793 10.4356C128.312 9.20257 129.145 8.27236 130.291 7.645C131.438 6.99601 132.833 6.67152 134.477 6.67152V11.3442C134.261 11.3226 134.066 11.3118 133.893 11.3118C133.72 11.2901 133.536 11.2793 133.341 11.2793C131.957 11.2793 130.832 11.6795 129.967 12.48C129.123 13.2587 128.701 14.481 128.701 16.1467V24.3889H123.639ZM145.667 24.6485C143.807 24.6485 142.152 24.2591 140.703 23.4803C139.275 22.7015 138.139 21.6415 137.295 20.3003C136.473 18.9374 136.062 17.3906 136.062 15.66C136.062 13.9077 136.473 12.361 137.295 11.0197C138.139 9.65686 139.275 8.59685 140.703 7.8397C142.152 7.06091 143.807 6.67152 145.667 6.67152C147.506 6.67152 149.15 7.06091 150.6 7.8397C152.049 8.59685 153.185 9.64605 154.007 10.9873C154.829 12.3285 155.24 13.8861 155.24 15.66C155.24 17.3906 154.829 18.9374 154.007 20.3003C153.185 21.6415 152.049 22.7015 150.6 23.4803C149.15 24.2591 147.506 24.6485 145.667 24.6485ZM145.667 20.495C146.511 20.495 147.268 20.3003 147.939 19.9109C148.609 19.5215 149.139 18.9698 149.529 18.256C149.918 17.5204 150.113 16.6551 150.113 15.66C150.113 14.6433 149.918 13.7779 149.529 13.064C149.139 12.3502 148.609 11.7985 147.939 11.4091C147.268 11.0197 146.511 10.825 145.667 10.825C144.824 10.825 144.066 11.0197 143.396 11.4091C142.725 11.7985 142.184 12.3502 141.773 13.064C141.384 13.7779 141.189 14.6433 141.189 15.66C141.189 16.6551 141.384 17.5204 141.773 18.256C142.184 18.9698 142.725 19.5215 143.396 19.9109C144.066 20.3003 144.824 20.495 145.667 20.495ZM139.08 4.69211L143.363 0.0193946H147.841L152.125 4.69211H148.426L143.947 0.79818H147.257L142.779 4.69211H139.08ZM158.623 24.3889V6.93111H163.458V11.7012L162.55 10.3059C163.156 9.11604 164.01 8.21827 165.113 7.61255C166.238 6.9852 167.515 6.67152 168.942 6.67152C170.543 6.67152 171.939 7.08255 173.128 7.9046C174.34 8.70501 175.14 9.93809 175.53 11.6038L173.745 11.1171C174.329 9.75421 175.259 8.67257 176.536 7.87215C177.834 7.07173 179.315 6.67152 180.981 6.67152C182.366 6.67152 183.588 6.95275 184.648 7.5152C185.73 8.05603 186.573 8.89971 187.179 10.0463C187.806 11.1712 188.12 12.6206 188.12 14.3945V24.3889H183.058V15.1733C183.058 13.7671 182.766 12.7287 182.182 12.0581C181.598 11.3875 180.776 11.0522 179.716 11.0522C178.98 11.0522 178.32 11.2253 177.736 11.5714C177.152 11.8959 176.698 12.3934 176.373 13.064C176.049 13.7347 175.887 14.5892 175.887 15.6276V24.3889H170.824V15.1733C170.824 13.7671 170.532 12.7287 169.948 12.0581C169.386 11.3875 168.575 11.0522 167.515 11.0522C166.779 11.0522 166.119 11.2253 165.535 11.5714C164.951 11.8959 164.497 12.3934 164.172 13.064C163.848 13.7347 163.686 14.5892 163.686 15.6276V24.3889H158.623ZM201.448 24.6485C199.458 24.6485 197.706 24.2591 196.191 23.4803C194.699 22.7015 193.541 21.6415 192.719 20.3003C191.897 18.9374 191.486 17.3906 191.486 15.66C191.486 13.9077 191.886 12.361 192.687 11.0197C193.509 9.65686 194.623 8.59685 196.029 7.8397C197.435 7.06091 199.025 6.67152 200.799 6.67152C202.508 6.67152 204.044 7.03928 205.407 7.7748C206.791 8.48869 207.884 9.52707 208.684 10.8899C209.485 12.2312 209.885 13.8428 209.885 15.7249C209.885 15.9196 209.874 16.1467 209.852 16.4063C209.831 16.6443 209.809 16.8714 209.788 17.0878H195.607V14.1349H207.127L205.18 15.011C205.18 14.1024 204.996 13.3128 204.628 12.6422C204.26 11.9716 203.752 11.4524 203.103 11.0846C202.454 10.6952 201.697 10.5005 200.832 10.5005C199.966 10.5005 199.198 10.6952 198.528 11.0846C197.879 11.4524 197.37 11.9824 197.002 12.6747C196.635 13.3453 196.451 14.1457 196.451 15.0759V15.8547C196.451 16.8065 196.656 17.6502 197.067 18.3857C197.5 19.0996 198.095 19.6513 198.852 20.0407C199.631 20.4084 200.539 20.5923 201.578 20.5923C202.508 20.5923 203.319 20.4517 204.012 20.1705C204.725 19.8892 205.374 19.4674 205.959 18.9049L208.652 21.8254C207.851 22.734 206.845 23.437 205.634 23.9346C204.423 24.4105 203.027 24.6485 201.448 24.6485ZM220.394 24.6485C218.339 24.6485 216.738 24.1293 215.591 23.0909C214.445 22.0309 213.872 20.4625 213.872 18.3857V3.06964H218.934V18.3208C218.934 19.0564 219.128 19.6296 219.518 20.0407C219.907 20.4301 220.437 20.6248 221.108 20.6248C221.908 20.6248 222.59 20.4084 223.152 19.9758L224.515 23.5452C223.996 23.913 223.368 24.1942 222.633 24.3889C221.919 24.5619 221.173 24.6485 220.394 24.6485ZM211.178 10.825V6.93111H223.282V10.825H211.178ZM227.357 24.3889V6.93111H232.192V11.8634L231.51 10.4356C232.029 9.20257 232.862 8.27236 234.009 7.645C235.155 6.99601 236.551 6.67152 238.195 6.67152V11.3442C237.978 11.3226 237.784 11.3118 237.611 11.3118C237.438 11.2901 237.254 11.2793 237.059 11.2793C235.674 11.2793 234.55 11.6795 233.684 12.48C232.841 13.2587 232.419 14.481 232.419 16.1467V24.3889H227.357ZM249.385 24.6485C247.524 24.6485 245.87 24.2591 244.42 23.4803C242.992 22.7015 241.857 21.6415 241.013 20.3003C240.191 18.9374 239.78 17.3906 239.78 15.66C239.78 13.9077 240.191 12.361 241.013 11.0197C241.857 9.65686 242.992 8.59685 244.42 7.8397C245.87 7.06091 247.524 6.67152 249.385 6.67152C251.224 6.67152 252.868 7.06091 254.317 7.8397C255.767 8.59685 256.902 9.64605 257.724 10.9873C258.546 12.3285 258.958 13.8861 258.958 15.66C258.958 17.3906 258.546 18.9374 257.724 20.3003C256.902 21.6415 255.767 22.7015 254.317 23.4803C252.868 24.2591 251.224 24.6485 249.385 24.6485ZM249.385 20.495C250.229 20.495 250.986 20.3003 251.656 19.9109C252.327 19.5215 252.857 18.9698 253.246 18.256C253.636 17.5204 253.83 16.6551 253.83 15.66C253.83 14.6433 253.636 13.7779 253.246 13.064C252.857 12.3502 252.327 11.7985 251.656 11.4091C250.986 11.0197 250.229 10.825 249.385 10.825C248.541 10.825 247.784 11.0197 247.113 11.4091C246.443 11.7985 245.902 12.3502 245.491 13.064C245.102 13.7779 244.907 14.6433 244.907 15.66C244.907 16.6551 245.102 17.5204 245.491 18.256C245.902 18.9698 246.443 19.5215 247.113 19.9109C247.784 20.3003 248.541 20.495 249.385 20.495ZM80.5822 64.3889V41.6743H97.7479V45.8927H85.8066V60.1705H98.1698V64.3889H80.5822ZM85.4172 54.9137V50.825H96.3526V54.9137H85.4172ZM107.774 64.6485C106.281 64.6485 104.843 64.4754 103.458 64.1293C102.095 63.7615 101.013 63.3072 100.213 62.7664L101.9 59.1321C102.701 59.6296 103.642 60.0407 104.724 60.3652C105.827 60.668 106.908 60.8195 107.968 60.8195C109.137 60.8195 109.959 60.6788 110.435 60.3976C110.932 60.1164 111.181 59.727 111.181 59.2294C111.181 58.8184 110.986 58.5155 110.597 58.3208C110.229 58.1045 109.732 57.9423 109.104 57.8341C108.477 57.7259 107.785 57.6178 107.027 57.5096C106.292 57.4015 105.546 57.2608 104.788 57.0878C104.031 56.8931 103.339 56.6118 102.712 56.2441C102.084 55.8763 101.576 55.3788 101.187 54.7514C100.819 54.1241 100.635 53.3128 100.635 52.3177C100.635 51.2144 100.949 50.241 101.576 49.3973C102.225 48.5536 103.155 47.8938 104.367 47.4179C105.578 46.9203 107.027 46.6715 108.715 46.6715C109.905 46.6715 111.116 46.8013 112.349 47.0609C113.582 47.3205 114.61 47.6991 115.432 48.1966L113.744 51.7985C112.901 51.301 112.046 50.9657 111.181 50.7926C110.337 50.5979 109.515 50.5005 108.715 50.5005C107.59 50.5005 106.768 50.652 106.249 50.9548C105.729 51.2577 105.47 51.6471 105.47 52.123C105.47 52.5557 105.654 52.8802 106.022 53.0965C106.411 53.3128 106.919 53.4859 107.547 53.6157C108.174 53.7455 108.855 53.8645 109.591 53.9726C110.348 54.0592 111.105 54.1998 111.862 54.3945C112.62 54.5892 113.301 54.8704 113.907 55.2382C114.534 55.5843 115.042 56.071 115.432 56.6984C115.821 57.3041 116.016 58.1045 116.016 59.0996C116.016 60.1813 115.691 61.1439 115.042 61.9876C114.393 62.8097 113.452 63.4587 112.219 63.9346C111.008 64.4105 109.526 64.6485 107.774 64.6485ZM127.576 64.6485C125.694 64.6485 124.017 64.2699 122.546 63.5128C121.075 62.734 119.918 61.6631 119.074 60.3003C118.252 58.9374 117.841 57.3906 117.841 55.66C117.841 53.9077 118.252 52.361 119.074 51.0197C119.918 49.6569 121.075 48.5968 122.546 47.8397C124.017 47.0609 125.694 46.6715 127.576 46.6715C129.415 46.6715 131.016 47.0609 132.379 47.8397C133.741 48.5968 134.747 49.6893 135.396 51.1171L131.47 53.2263C131.016 52.4042 130.442 51.7985 129.75 51.4091C129.08 51.0197 128.344 50.825 127.544 50.825C126.678 50.825 125.899 51.0197 125.207 51.4091C124.515 51.7985 123.963 52.3502 123.552 53.064C123.163 53.7779 122.968 54.6433 122.968 55.66C122.968 56.6767 123.163 57.5421 123.552 58.256C123.963 58.9698 124.515 59.5215 125.207 59.9109C125.899 60.3003 126.678 60.495 127.544 60.495C128.344 60.495 129.08 60.3111 129.75 59.9433C130.442 59.5539 131.016 58.9374 131.47 58.0937L135.396 60.2354C134.747 61.6415 133.741 62.734 132.379 63.5128C131.016 64.2699 129.415 64.6485 127.576 64.6485ZM146.396 64.6485C144.536 64.6485 142.881 64.2591 141.431 63.4803C140.004 62.7015 138.868 61.6415 138.024 60.3003C137.202 58.9374 136.791 57.3906 136.791 55.66C136.791 53.9077 137.202 52.361 138.024 51.0197C138.868 49.6569 140.004 48.5968 141.431 47.8397C142.881 47.0609 144.536 46.6715 146.396 46.6715C148.235 46.6715 149.879 47.0609 151.328 47.8397C152.778 48.5968 153.914 49.646 154.736 50.9873C155.558 52.3285 155.969 53.8861 155.969 55.66C155.969 57.3906 155.558 58.9374 154.736 60.3003C153.914 61.6415 152.778 62.7015 151.328 63.4803C149.879 64.2591 148.235 64.6485 146.396 64.6485ZM146.396 60.495C147.24 60.495 147.997 60.3003 148.668 59.9109C149.338 59.5215 149.868 58.9698 150.258 58.256C150.647 57.5204 150.842 56.6551 150.842 55.66C150.842 54.6433 150.647 53.7779 150.258 53.064C149.868 52.3502 149.338 51.7985 148.668 51.4091C147.997 51.0197 147.24 50.825 146.396 50.825C145.552 50.825 144.795 51.0197 144.125 51.4091C143.454 51.7985 142.913 52.3502 142.502 53.064C142.113 53.7779 141.918 54.6433 141.918 55.66C141.918 56.6551 142.113 57.5204 142.502 58.256C142.913 58.9698 143.454 59.5215 144.125 59.9109C144.795 60.3003 145.552 60.495 146.396 60.495ZM159.352 64.3889V40.3114H164.414V64.3889H159.352ZM179.821 64.3889V60.9817L179.496 60.2354V54.1349C179.496 53.0532 179.161 52.2095 178.49 51.6038C177.841 50.9981 176.835 50.6952 175.473 50.6952C174.542 50.6952 173.623 50.8467 172.714 51.1495C171.827 51.4308 171.07 51.8202 170.443 52.3177L168.626 48.7807C169.578 48.1101 170.724 47.5909 172.065 47.2232C173.407 46.8554 174.77 46.6715 176.154 46.6715C178.815 46.6715 180.881 47.2989 182.352 48.5536C183.823 49.8083 184.558 51.7661 184.558 54.4269V64.3889H179.821ZM174.499 64.6485C173.136 64.6485 171.968 64.4213 170.995 63.967C170.021 63.4911 169.275 62.8529 168.756 62.0525C168.236 61.2521 167.977 60.3543 167.977 59.3592C167.977 58.3208 168.226 57.4123 168.723 56.6335C169.242 55.8547 170.054 55.249 171.157 54.8163C172.26 54.362 173.699 54.1349 175.473 54.1349H180.113V57.0878H176.024C174.834 57.0878 174.012 57.2825 173.558 57.6719C173.125 58.0613 172.909 58.548 172.909 59.1321C172.909 59.7811 173.158 60.3003 173.655 60.6897C174.175 61.0574 174.878 61.2413 175.765 61.2413C176.608 61.2413 177.365 61.0466 178.036 60.6572C178.707 60.2462 179.193 59.6513 179.496 58.8725L180.275 61.2088C179.907 62.3338 179.237 63.1883 178.263 63.7723C177.29 64.3564 176.035 64.6485 174.499 64.6485ZM189.14 64.3889V46.9311H193.975V51.8634L193.293 50.4356C193.813 49.2026 194.645 48.2724 195.792 47.645C196.939 46.996 198.334 46.6715 199.978 46.6715V51.3442C199.762 51.3226 199.567 51.3118 199.394 51.3118C199.221 51.2901 199.037 51.2793 198.842 51.2793C197.458 51.2793 196.333 51.6795 195.467 52.48C194.624 53.2587 194.202 54.481 194.202 56.1467V64.3889H189.14Z" fill="#0E4194"/>
<path d="M3.38892 16.9444V10.1667C3.38892 8.36909 4.103 6.64513 5.37408 5.37405C6.64516 4.10297 8.36912 3.38889 10.1667 3.38889H16.9445" stroke="#68B42D" stroke-width="6.77778" stroke-linecap="round" stroke-linejoin="round"/>
<path d="M50.8333 3.38889H57.6111C59.4087 3.38889 61.1326 4.10297 62.4037 5.37405C63.6748 6.64513 64.3889 8.36909 64.3889 10.1667V16.9444" stroke="#68B42D" stroke-width="6.77778" stroke-linecap="round" stroke-linejoin="round"/>
<path d="M64.3889 50.8333V57.6111C64.3889 59.4087 63.6748 61.1326 62.4037 62.4037C61.1326 63.6748 59.4087 64.3889 57.6111 64.3889H50.8333" stroke="#68B42D" stroke-width="6.77778" stroke-linecap="round" stroke-linejoin="round"/>
<path d="M16.9445 64.3889H10.1667C8.36912 64.3889 6.64516 63.6748 5.37408 62.4037C4.103 61.1326 3.38892 59.4087 3.38892 57.6111V50.8333" stroke="#68B42D" stroke-width="6.77778" stroke-linecap="round" stroke-linejoin="round"/>
<path d="M20.3333 40.6667C20.3333 40.6667 25.4166 47.4444 33.8889 47.4444C42.3611 47.4444 47.4444 40.6667 47.4444 40.6667" stroke="#68B42D" stroke-width="6.77778" stroke-linecap="round" stroke-linejoin="round"/>
<path d="M23.7222 23.7222H23.756" stroke="#68B42D" stroke-width="6.77778" stroke-linecap="round" stroke-linejoin="round"/>
<path d="M44.0557 23.7222H44.0895" stroke="#68B42D" stroke-width="6.77778" stroke-linecap="round" stroke-linejoin="round"/>
</svg>
